# xmcd CD database file
#
# Track frame offsets:
#	150
#	12225
#	27300
#	42075
#	55725
#	68625
#	82500
#	96375
#	110175
#	124200
#	136575
#	150675
#	164175
#	178450
#	192975
#	208650
#	220050
#
# Disc length: 3135 seconds
#
# Revision: 0
# Processed by: cddbd v1.5.1PL0 Copyright (c) Steve Scherf et al.
# Submitted via: CDex 1.51
#
DISCID=f00c3d11
DTITLE=Billy Holiday - Rare/Unissued Recordings (1933-50) Vol.7
DYEAR=1990
DGENRE=Jazz
TTITLE0=Back In Your Own Backyard
TTITLE1=My Sweet Hunk Of Trash
TTITLE2=Do Your Duty
TTITLE3=I'm Painting The Town Red
TTITLE4=Did I Remember
TTITLE5=One Never Knows - Does One
TTITLE6=Moanin' Low
TTITLE7=My Man
TTITLE8=Time On My Hands
TTITLE9=Gimme A Pigfoot (And A Bottle Of Beer)
TTITLE10=Good Morning Hardache
TTITLE11=What A Night, What A Moon, What A Girl
TTITLE12=Guess Who
TTITLE13=I Cried For You
TTITLE14=I Can't Give You Anything But Love, Baby
TTITLE15=How Could You
TTITLE16=Things Are Looking Up
EXTD=YEAR: 1990
EXTT0=
EXTT1=
EXTT2=
EXTT3=
EXTT4=
EXTT5=
EXTT6=
EXTT7=
EXTT8=
EXTT9=
EXTT10=
EXTT11=
EXTT12=
EXTT13=
EXTT14=
EXTT15=
EXTT16=
PLAYORDER=
